<mxfile host="app.diagrams.net" modified="2024-04-06T12:35:37.156Z" agent="Mozilla/5.0 (Windows NT 10.0; Win64; x64) AppleWebKit/537.36 (KHTML, like Gecko) Chrome/123.0.0.0 Safari/537.36 Edg/123.0.0.0" etag="fp9wsmGOR8O--Hd7l2Gz" version="24.2.2" type="device">
  <diagram name="Страница — 1" id="UhsYTtmsuFwSl_J5hp2-">
    <mxGraphModel dx="1126" dy="619" grid="1" gridSize="10" guides="1" tooltips="1" connect="1" arrows="1" fold="1" page="1" pageScale="1" pageWidth="827" pageHeight="1169" math="0" shadow="0">
      <root>
        <mxCell id="0" />
        <mxCell id="1" parent="0" />
        <mxCell id="mYXeogupsq6dkR24XdCy-1" value="" style="rounded=0;whiteSpace=wrap;html=1;" vertex="1" parent="1">
          <mxGeometry x="280" y="20" width="340" height="390" as="geometry" />
        </mxCell>
        <mxCell id="mYXeogupsq6dkR24XdCy-2" value="HeadHunter" style="text;html=1;align=center;verticalAlign=middle;whiteSpace=wrap;rounded=0;" vertex="1" parent="1">
          <mxGeometry x="420" y="30" width="60" height="30" as="geometry" />
        </mxCell>
        <mxCell id="mYXeogupsq6dkR24XdCy-3" value="Гость" style="shape=umlActor;verticalLabelPosition=bottom;verticalAlign=top;html=1;outlineConnect=0;" vertex="1" parent="1">
          <mxGeometry x="670" y="220" width="30" height="60" as="geometry" />
        </mxCell>
        <mxCell id="mYXeogupsq6dkR24XdCy-4" value="Соискатель" style="shape=umlActor;verticalLabelPosition=bottom;verticalAlign=top;html=1;outlineConnect=0;" vertex="1" parent="1">
          <mxGeometry x="170" y="145" width="30" height="60" as="geometry" />
        </mxCell>
        <mxCell id="mYXeogupsq6dkR24XdCy-23" style="edgeStyle=orthogonalEdgeStyle;rounded=0;orthogonalLoop=1;jettySize=auto;html=1;exitX=0.5;exitY=0.5;exitDx=0;exitDy=0;exitPerimeter=0;entryX=0;entryY=1;entryDx=0;entryDy=0;" edge="1" parent="1" source="mYXeogupsq6dkR24XdCy-5" target="mYXeogupsq6dkR24XdCy-9">
          <mxGeometry relative="1" as="geometry">
            <Array as="points">
              <mxPoint x="300" y="370" />
              <mxPoint x="300" y="186" />
            </Array>
          </mxGeometry>
        </mxCell>
        <mxCell id="mYXeogupsq6dkR24XdCy-5" value="Работодатель&amp;nbsp;" style="shape=umlActor;verticalLabelPosition=bottom;verticalAlign=top;html=1;outlineConnect=0;" vertex="1" parent="1">
          <mxGeometry x="170" y="340" width="30" height="60" as="geometry" />
        </mxCell>
        <mxCell id="mYXeogupsq6dkR24XdCy-6" value="&lt;font style=&quot;font-size: 8px;&quot;&gt;Войти в систему&lt;/font&gt;" style="ellipse;whiteSpace=wrap;html=1;" vertex="1" parent="1">
          <mxGeometry x="402.5" y="50" width="95" height="30" as="geometry" />
        </mxCell>
        <mxCell id="mYXeogupsq6dkR24XdCy-7" value="&lt;font style=&quot;font-size: 8px;&quot;&gt;Зарегистрироваться&lt;/font&gt;" style="ellipse;whiteSpace=wrap;html=1;" vertex="1" parent="1">
          <mxGeometry x="402.5" y="90" width="95" height="30" as="geometry" />
        </mxCell>
        <mxCell id="mYXeogupsq6dkR24XdCy-19" style="edgeStyle=orthogonalEdgeStyle;rounded=0;orthogonalLoop=1;jettySize=auto;html=1;exitX=1;exitY=0.5;exitDx=0;exitDy=0;entryX=1;entryY=0.5;entryDx=0;entryDy=0;" edge="1" parent="1" target="mYXeogupsq6dkR24XdCy-9">
          <mxGeometry relative="1" as="geometry">
            <mxPoint x="580" y="175" as="sourcePoint" />
          </mxGeometry>
        </mxCell>
        <mxCell id="mYXeogupsq6dkR24XdCy-30" style="edgeStyle=orthogonalEdgeStyle;rounded=0;orthogonalLoop=1;jettySize=auto;html=1;exitX=0;exitY=0.5;exitDx=0;exitDy=0;entryX=0;entryY=0.5;entryDx=0;entryDy=0;" edge="1" parent="1" target="mYXeogupsq6dkR24XdCy-9">
          <mxGeometry relative="1" as="geometry">
            <mxPoint x="290" y="175.1428571428571" as="sourcePoint" />
          </mxGeometry>
        </mxCell>
        <mxCell id="mYXeogupsq6dkR24XdCy-9" value="&lt;font style=&quot;font-size: 8px;&quot;&gt;Поиск вакансий&lt;/font&gt;" style="ellipse;whiteSpace=wrap;html=1;" vertex="1" parent="1">
          <mxGeometry x="402.5" y="160" width="95" height="30" as="geometry" />
        </mxCell>
        <mxCell id="mYXeogupsq6dkR24XdCy-21" style="edgeStyle=orthogonalEdgeStyle;rounded=0;orthogonalLoop=1;jettySize=auto;html=1;exitX=1;exitY=0.5;exitDx=0;exitDy=0;entryX=1;entryY=0.5;entryDx=0;entryDy=0;" edge="1" parent="1" target="mYXeogupsq6dkR24XdCy-10">
          <mxGeometry relative="1" as="geometry">
            <mxPoint x="580" y="220" as="sourcePoint" />
          </mxGeometry>
        </mxCell>
        <mxCell id="mYXeogupsq6dkR24XdCy-25" style="edgeStyle=orthogonalEdgeStyle;rounded=0;orthogonalLoop=1;jettySize=auto;html=1;exitX=0;exitY=0.5;exitDx=0;exitDy=0;entryX=0;entryY=0.5;entryDx=0;entryDy=0;" edge="1" parent="1" target="mYXeogupsq6dkR24XdCy-10">
          <mxGeometry relative="1" as="geometry">
            <mxPoint x="300" y="220.28571428571433" as="sourcePoint" />
          </mxGeometry>
        </mxCell>
        <mxCell id="mYXeogupsq6dkR24XdCy-29" style="edgeStyle=orthogonalEdgeStyle;rounded=0;orthogonalLoop=1;jettySize=auto;html=1;exitX=0;exitY=0;exitDx=0;exitDy=0;entryX=0;entryY=0;entryDx=0;entryDy=0;" edge="1" parent="1" target="mYXeogupsq6dkR24XdCy-10">
          <mxGeometry relative="1" as="geometry">
            <mxPoint x="290" y="209.42857142857144" as="sourcePoint" />
          </mxGeometry>
        </mxCell>
        <mxCell id="mYXeogupsq6dkR24XdCy-10" value="&lt;font style=&quot;font-size: 8px;&quot;&gt;Фильтрация поиска&lt;/font&gt;" style="ellipse;whiteSpace=wrap;html=1;" vertex="1" parent="1">
          <mxGeometry x="402.5" y="205" width="95" height="30" as="geometry" />
        </mxCell>
        <mxCell id="mYXeogupsq6dkR24XdCy-26" style="edgeStyle=orthogonalEdgeStyle;rounded=0;orthogonalLoop=1;jettySize=auto;html=1;exitX=0;exitY=0.5;exitDx=0;exitDy=0;entryX=0;entryY=0.5;entryDx=0;entryDy=0;" edge="1" parent="1" target="mYXeogupsq6dkR24XdCy-11">
          <mxGeometry relative="1" as="geometry">
            <mxPoint x="300" y="315.1428571428571" as="sourcePoint" />
          </mxGeometry>
        </mxCell>
        <mxCell id="mYXeogupsq6dkR24XdCy-11" value="&lt;font style=&quot;font-size: 8px;&quot;&gt;Поиск сотрудников&lt;/font&gt;" style="ellipse;whiteSpace=wrap;html=1;" vertex="1" parent="1">
          <mxGeometry x="402.5" y="300" width="95" height="30" as="geometry" />
        </mxCell>
        <mxCell id="mYXeogupsq6dkR24XdCy-27" style="edgeStyle=orthogonalEdgeStyle;rounded=0;orthogonalLoop=1;jettySize=auto;html=1;exitX=0;exitY=0.5;exitDx=0;exitDy=0;entryX=0;entryY=0.5;entryDx=0;entryDy=0;" edge="1" parent="1" target="mYXeogupsq6dkR24XdCy-12">
          <mxGeometry relative="1" as="geometry">
            <mxPoint x="300" y="364.8571428571429" as="sourcePoint" />
          </mxGeometry>
        </mxCell>
        <mxCell id="mYXeogupsq6dkR24XdCy-12" value="&lt;font style=&quot;font-size: 8px;&quot;&gt;Разместить вакансию&lt;/font&gt;" style="ellipse;whiteSpace=wrap;html=1;" vertex="1" parent="1">
          <mxGeometry x="402.5" y="350" width="95" height="30" as="geometry" />
        </mxCell>
        <mxCell id="mYXeogupsq6dkR24XdCy-24" style="edgeStyle=orthogonalEdgeStyle;rounded=0;orthogonalLoop=1;jettySize=auto;html=1;exitX=0;exitY=0.5;exitDx=0;exitDy=0;entryX=0;entryY=0.5;entryDx=0;entryDy=0;" edge="1" parent="1" target="mYXeogupsq6dkR24XdCy-13">
          <mxGeometry relative="1" as="geometry">
            <mxPoint x="300" y="264.8571428571429" as="sourcePoint" />
          </mxGeometry>
        </mxCell>
        <mxCell id="mYXeogupsq6dkR24XdCy-13" value="&lt;font style=&quot;font-size: 8px;&quot;&gt;Выход из системы&lt;/font&gt;" style="ellipse;whiteSpace=wrap;html=1;" vertex="1" parent="1">
          <mxGeometry x="402.5" y="250" width="95" height="30" as="geometry" />
        </mxCell>
        <mxCell id="mYXeogupsq6dkR24XdCy-15" value="" style="endArrow=classic;html=1;rounded=0;entryX=1;entryY=0.5;entryDx=0;entryDy=0;" edge="1" parent="1" source="mYXeogupsq6dkR24XdCy-3" target="mYXeogupsq6dkR24XdCy-6">
          <mxGeometry width="50" height="50" relative="1" as="geometry">
            <mxPoint x="390" y="280" as="sourcePoint" />
            <mxPoint x="440" y="230" as="targetPoint" />
            <Array as="points">
              <mxPoint x="580" y="250" />
              <mxPoint x="580" y="65" />
            </Array>
          </mxGeometry>
        </mxCell>
        <mxCell id="mYXeogupsq6dkR24XdCy-16" value="" style="endArrow=classic;html=1;rounded=0;entryX=1;entryY=0.5;entryDx=0;entryDy=0;" edge="1" parent="1" target="mYXeogupsq6dkR24XdCy-7">
          <mxGeometry width="50" height="50" relative="1" as="geometry">
            <mxPoint x="580" y="105" as="sourcePoint" />
            <mxPoint x="440" y="230" as="targetPoint" />
          </mxGeometry>
        </mxCell>
        <mxCell id="mYXeogupsq6dkR24XdCy-28" value="" style="endArrow=classic;html=1;rounded=0;entryX=0;entryY=0;entryDx=0;entryDy=0;" edge="1" parent="1" source="mYXeogupsq6dkR24XdCy-4" target="mYXeogupsq6dkR24XdCy-13">
          <mxGeometry width="50" height="50" relative="1" as="geometry">
            <mxPoint x="350" y="250" as="sourcePoint" />
            <mxPoint x="400" y="200" as="targetPoint" />
            <Array as="points">
              <mxPoint x="290" y="175" />
              <mxPoint x="290" y="220" />
              <mxPoint x="290" y="254" />
            </Array>
          </mxGeometry>
        </mxCell>
        <mxCell id="mYXeogupsq6dkR24XdCy-32" style="edgeStyle=orthogonalEdgeStyle;rounded=0;orthogonalLoop=1;jettySize=auto;html=1;exitX=0.5;exitY=0.5;exitDx=0;exitDy=0;entryX=0;entryY=0.5;entryDx=0;entryDy=0;exitPerimeter=0;" edge="1" parent="1" source="mYXeogupsq6dkR24XdCy-4" target="mYXeogupsq6dkR24XdCy-31">
          <mxGeometry relative="1" as="geometry">
            <mxPoint x="290" y="170" as="sourcePoint" />
            <Array as="points">
              <mxPoint x="290" y="175" />
              <mxPoint x="290" y="135" />
            </Array>
          </mxGeometry>
        </mxCell>
        <mxCell id="mYXeogupsq6dkR24XdCy-31" value="&lt;span style=&quot;font-size: 8px;&quot;&gt;Создать резюме&lt;/span&gt;" style="ellipse;whiteSpace=wrap;html=1;" vertex="1" parent="1">
          <mxGeometry x="402.5" y="120" width="95" height="30" as="geometry" />
        </mxCell>
      </root>
    </mxGraphModel>
  </diagram>
</mxfile>
